PathFileType	4	(X/Y/Z)	D:\Share\Shared_Data\Ergonomics\Sit To Stand Pertubation\S0\Perturbed STS.trc
DataRate	CameraRate	NumFrames	NumMarkers	Units	OrigDataRate	OrigDataStartFrame	OrigNumFrames	
100	100	16	18	m	100	6229	181
Frame#	Time	R_Heel			R_ASIS			R_Pelvis			V_Sacral			L_Pelvis			L_ASIS			Clavical			R_Acromium			L_Acromium			Sternum			Torso			R_Thigh_Med			R_Thigh_Lat			R_Thigh			R_Shank_Med			R_Shank_Lat			R_Shank			R_Toe			
		X1	Y1	Z1	X2	Y2	Z2	X3	Y3	Z3	X4	Y4	Z4	X5	Y5	Z5	X6	Y6	Z6	X7	Y7	Z7	X8	Y8	Z8	X9	Y9	Z9	X10	Y10	Z10	X11	Y11	Z11	X12	Y12	Z12	X13	Y13	Z13	X14	Y14	Z14	X15	Y15	Z15	X16	Y16	Z16	X17	Y17	Z17	X18	Y18	Z18	

6229	18.63	0.15190765	0.040745033	0.14493646	0.17179726	0.89093945	0.1384192	0.063060707	0.95118207	0.18759389	-0.069859329	0.97666199	-0.038209118	0.063497902	0.92941345	-0.22406987	0.16999959	0.87195544	-0.17378477	0.39805637	1.2261702	-0.030298227	0.36106918	1.3261781	0.10212234	0.35922159	1.3286879	-0.17954533	0.37894507	1.1318088	-0.048039459	0.38249911	1.1836958	-0.14946815	0.31115439	0.48571725	0.042567989	0.31135867	0.50898224	0.17450908	0.3180433	0.66024463	0.10004931	0.25092044	0.097871826	0.094136726	0.19645308	0.087365822	0.18643161	0.2600155	0.31156454	0.19693199	0.38148706	0.04753019	0.13352765
6230	18.64	0.15186499	0.040703415	0.14496436	0.1747308	0.89411438	0.13878856	0.066014427	0.95385223	0.18817438	-0.067141258	0.97935712	-0.037310944	0.065891991	0.93287885	-0.22355232	0.17253764	0.87558453	-0.1735013	0.39775964	1.2329625	-0.030223598	0.36004922	1.332532	0.10244082	0.35775916	1.3351013	-0.17942572	0.37957663	1.1383557	-0.047765888	0.38234708	1.1902971	-0.14947569	0.31095682	0.48586417	0.042602524	0.31131064	0.50900632	0.17448859	0.31940915	0.66023907	0.10029514	0.25083363	0.097886963	0.094104721	0.19643697	0.087345123	0.18644058	0.2599642	0.31155914	0.19696881	0.38143344	0.047547707	0.13343462
6231	18.65	0.15181987	0.040659401	0.14498613	0.17767212	0.89730042	0.13915938	0.068944878	0.95647601	0.18871786	-0.064419563	0.98198029	-0.036455147	0.068332306	0.93628174	-0.22304697	0.17520055	0.87923328	-0.17321608	0.39739349	1.2397173	-0.030133373	0.35895114	1.33884	0.1027846	0.35624225	1.341459	-0.17928658	0.38017542	1.1448665	-0.04747683	0.38215262	1.1968569	-0.14946986	0.31075363	0.48602072	0.042659611	0.31121262	0.50904089	0.17448238	0.32074036	0.6602348	0.10055354	0.2507464	0.097908653	0.094079445	0.19641164	0.087323593	0.18645065	0.25987964	0.31155685	0.19700769	0.38137021	0.047585255	0.13335193
6232	18.66	0.15177249	0.040613884	0.1450016	0.180631	0.9004975	0.13953323	0.071850197	0.95904846	0.18922359	-0.061692448	0.9845285	-0.035646835	0.070820564	0.93961096	-0.22255818	0.177965	0.88288824	-0.17292563	0.39696249	1.2464335	-0.030027431	0.35777554	1.345101	0.10315327	0.35467191	1.3477571	-0.17913103	0.38074612	1.1513395	-0.047175575	0.38192261	1.2033726	-0.14945274	0.31055637	0.48618546	0.042743404	0.31106522	0.509086	0.1744933	0.32204047	0.66023102	0.10083997	0.25065913	0.097937622	0.094061447	0.19637608	0.087301186	0.1864621	0.25975955	0.31155844	0.19705043	0.38129691	0.047645721	0.13328091
6233	18.67	0.15172298	0.040567944	0.14501109	0.1836179	0.90370612	0.13991168	0.074733307	0.96156488	0.18969417	-0.058957661	0.98699976	-0.034888638	0.073356735	0.94285809	-0.22208839	0.18080827	0.88653589	-0.17262729	0.39646976	1.2531112	-0.029905733	0.35652383	1.3513134	0.10354626	0.35304773	1.3539932	-0.17896193	0.38128995	1.1577748	-0.046865555	0.38165994	1.2098424	-0.14942599	0.31036841	0.48635516	0.042855282	0.31086923	0.50914127	0.17452335	0.3233107	0.6602262	0.10116868	0.25057161	0.097973907	0.094051079	0.19632916	0.087277893	0.18647511	0.25960095	0.31156552	0.19709872	0.38121243	0.047730488	0.13322253
6234	18.68	0.15167148	0.040522457	0.14501532	0.18664157	0.90692731	0.14029546	0.077601097	0.96402094	0.19013503	-0.056212814	0.98939307	-0.034180851	0.075940216	0.94601801	-0.22163788	0.18370082	0.8901582	-0.17231857	0.39591693	1.25975	-0.029768927	0.35519797	1.3574747	0.10396246	0.35136813	1.3601653	-0.17878183	0.38180518	1.1641735	-0.046550308	0.38136511	1.2162656	-0.14939101	0.31018817	0.4865275	0.042993599	0.31062399	0.50920712	0.17457298	0.32454819	0.66021808	0.10154934	0.25048322	0.098016815	0.094048737	0.19626965	0.087253639	0.18648993	0.25940039	0.31158002	0.19715413	0.38111575	0.047839279	0.13317776
6235	18.69	0.15161804	0.040477802	0.14501515	0.18970822	0.9101626	0.14068359	0.080460701	0.96641254	0.19055298	-0.053455647	0.99170831	-0.033522182	0.078571243	0.94908777	-0.22120592	0.18660387	0.89373267	-0.17199823	0.39530496	1.2663489	-0.029618847	0.35379929	1.3635817	0.1044	0.34963184	1.3662704	-0.17859335	0.3822883	1.1705363	-0.046232979	0.38103745	1.2226406	-0.14934898	0.31001059	0.48670212	0.043154305	0.31032748	0.50928552	0.17464095	0.3257471	0.660203	0.10198433	0.25039333	0.098065178	0.094055016	0.19619682	0.087228355	0.18650691	0.25915433	0.31160419	0.19721783	0.38100565	0.047970268	0.13314789
6236	18.7	0.15156281	0.040433964	0.14501149	0.19281996	0.91341492	0.14107304	0.083316513	0.96873816	0.19095483	-0.050683994	0.99394635	-0.032910587	0.081251152	0.95206683	-0.22079147	0.18949144	0.89724139	-0.17166774	0.39463504	1.2729043	-0.029458347	0.35232861	1.3696289	0.10485594	0.34783923	1.3723059	-0.17839938	0.38273544	1.1768625	-0.04591571	0.38067581	1.2289658	-0.14930054	0.30982828	0.48688016	0.043331757	0.30997714	0.50937891	0.17472421	0.32690363	0.66017731	0.10246757	0.25030193	0.098117775	0.09407029	0.19611053	0.087202271	0.18652634	0.25886041	0.31163986	0.19728951	0.38088101	0.048120743	0.13313402
6237	18.71	0.15150609	0.040390709	0.14500493	0.19597328	0.91668628	0.14146004	0.086169975	0.97099915	0.19134689	-0.047895866	0.99610834	-0.032344036	0.083981606	0.95495673	-0.22039226	0.19236412	0.90067877	-0.17133101	0.39390948	1.2794114	-0.029290512	0.35078583	1.3756088	0.10532645	0.34599265	1.3782678	-0.17820251	0.38314413	1.1831498	-0.045599258	0.38027979	1.2352373	-0.14924516	0.30963287	0.48706339	0.043519512	0.30957153	0.50948978	0.17481822	0.32801904	0.66013916	0.10298573	0.25020927	0.098173714	0.094094643	0.196011	0.087175774	0.18654814	0.25851846	0.31168768	0.19736621	0.38074127	0.048287941	0.13313638
6238	18.72	0.1514481	0.040347492	0.1449959	0.19915823	0.91997546	0.14184206	0.089020676	0.97319995	0.19173404	-0.045089668	0.99819531	-0.0318207	0.086764091	0.95776105	-0.22000423	0.19523969	0.90404865	-0.1709915	0.39313123	1.285863	-0.02911767	0.34916977	1.3815117	0.10580732	0.34409613	1.3841514	-0.17800456	0.38351535	1.1893929	-0.045283142	0.37984943	1.2414508	-0.14918132	0.3094155	0.48725311	0.04371106	0.30911078	0.50961948	0.17491737	0.32909888	0.66008868	0.10352096	0.25011551	0.098232422	0.094127884	0.19589844	0.087149269	0.18657199	0.25813007	0.31174689	0.1974433	0.38058661	0.048469284	0.13315388
6239	18.73	0.15138905	0.040303482	0.14498499	0.20236067	0.92327527	0.14221967	0.091867149	0.97534882	0.19211856	-0.04226416	1.0002085	-0.031338793	0.089599655	0.96048395	-0.21962259	0.19813887	0.90735931	-0.17065009	0.39230447	1.2922501	-0.028940805	0.34747937	1.3873264	0.10629487	0.34215463	1.3899496	-0.17780605	0.38385382	1.1955846	-0.044966042	0.37938638	1.2475991	-0.14910689	0.30916727	0.48744995	0.043900616	0.3085965	0.50976855	0.17501585	0.33014801	0.66002753	0.10405447	0.25001997	0.098293594	0.094169952	0.19577272	0.087122986	0.18659738	0.25769702	0.31181628	0.19751625	0.3804183	0.048662224	0.13318478
6240	18.74	0.1513289	0.040257885	0.14497334	0.20556615	0.92657501	0.1425955	0.094707169	0.97745776	0.19249995	-0.039418427	1.0021491	-0.030896444	0.092488548	0.96312878	-0.2192433	0.20107858	0.91061871	-0.17030592	0.39143521	1.2985623	-0.028759552	0.345716	1.3930419	0.10678654	0.34017371	1.3956538	-0.17760623	0.38416708	1.2017155	-0.044646236	0.37889349	1.2536747	-0.14901953	0.30887939	0.48765366	0.044083633	0.30803101	0.5099368	0.17510881	0.33116815	0.65995831	0.10456917	0.24992152	0.098357094	0.094221336	0.19563361	0.087096733	0.18662415	0.25721976	0.3118942	0.19758179	0.38023843	0.048863834	0.13322748
6241	18.75	0.15126747	0.040210186	0.14496245	0.20876431	0.9298634	0.142972	0.097538841	0.97954071	0.19287575	-0.036552086	1.0040181	-0.030492077	0.095430069	0.9656969	-0.21886433	0.20407043	0.91383191	-0.1699583	0.39053094	1.3047877	-0.028572359	0.34388416	1.3986467	0.10728074	0.33815906	1.4012528	-0.17740324	0.3844635	1.2077745	-0.044322056	0.37837427	1.2596669	-0.14891698	0.30854373	0.48786319	0.04425703	0.30741718	0.51012415	0.17519269	0.3321582	0.65988446	0.10505113	0.24981967	0.098422859	0.094283424	0.19548099	0.087069939	0.18665282	0.25669733	0.31197852	0.19763745	0.38005057	0.049070278	0.13328139
6242	18.76	0.15120479	0.040160416	0.14495383	0.21195071	0.93312952	0.14335056	0.10036149	0.98161108	0.19324251	-0.033665493	1.0058156	-0.030124672	0.098422554	0.96818713	-0.21848608	0.20712224	0.91700122	-0.16960776	0.38960077	1.3109139	-0.028376549	0.34199121	1.4041295	0.10777655	0.33611615	1.4067333	-0.17719518	0.38474985	1.2137493	-0.043992229	0.37783279	1.2655648	-0.14879697	0.30815436	0.4880773	0.04441922	0.30675851	0.51033002	0.17526514	0.33311658	0.65980902	0.10549043	0.24971484	0.098490662	0.094358131	0.1953157	0.087041786	0.18668466	0.25612848	0.31206705	0.19768163	0.37985898	0.049276192	0.1333474
6243	18.77	0.15114171	0.04010931	0.14494879	0.21512686	0.936362	0.14373193	0.1031753	0.98367883	0.19359663	-0.030759695	1.0075416	-0.029793772	0.1014632	0.9705976	-0.21811148	0.21023918	0.92012671	-0.16925639	0.38865402	1.3169275	-0.028168337	0.34004645	1.4094773	0.10827355	0.33405151	1.412082	-0.17698082	0.38503006	1.2196278	-0.043656197	0.37727301	1.2713553	-0.14865714	0.30770944	0.48829459	0.044569809	0.30605914	0.51055383	0.17532466	0.33404257	0.65973413	0.10588171	0.24960895	0.098559952	0.094447128	0.19514021	0.087011673	0.18672142	0.25551376	0.31215863	0.19771396	0.37966931	0.049474632	0.13342772
6244	18.78	0.15107976	0.04005835	0.14494807	0.21829767	0.9395495	0.14411601	0.10598034	0.98574805	0.19393513	-0.027836292	1.0091943	-0.029499395	0.10454751	0.97292529	-0.21774561	0.21342439	0.92320642	-0.16890742	0.38769916	1.3228158	-0.027943214	0.33806	1.4146776	0.10877171	0.33197284	1.4172882	-0.17675995	0.38530469	1.2253979	-0.043313915	0.37669879	1.2770262	-0.14849477	0.30721219	0.48851312	0.044709	0.30532364	0.51079465	0.17537047	0.33493732	0.65966071	0.1062244	0.24950476	0.0986297	0.094550987	0.19495879	0.086979439	0.18676414	0.25485674	0.3122533	0.19773553	0.37948856	0.049657368	0.13352557
